# xmcd CD database file
#
# Track frame offsets:
#	150
#	23399
#	36225
#	63388
#	76910
#	94035
#	113631
#	139114
#	158227
#	185189
#	211540
#
# Disc length: 3064 seconds
#
# Revision: 4
# Processed by: cddbd v1.5.2PL0 Copyright (c) Steve Scherf et al.
# Submitted via: CDex 1.70beta2
#
DISCID=850bf60b
DTITLE=Various Artist - The Best of Polish Smooth Jazz - CD 1
DYEAR=2005
DGENRE=Jazz
TTITLE0=Włodek Pawlik, Zbigniew Wegehaupt, Cezary Konrad/Some Day My Prince Will Come
TTITLE1=Leszek Możdżer/Mazurek A op.17 nr 4
TTITLE2=Simple Acoustic Trio/Pablo Blue
TTITLE3=Andrzej Jagodziński Trio/Waltz In D Flat Major
TTITLE4=Wojciech Kamiński/Autumn Leaves
TTITLE5=Masecki and Jagodziński/Suita "Per Gynt"
TTITLE6=Nahorny, Woliński/Jej Portret
TTITLE7=Jerzxy Milian/Nocturn
TTITLE8=Krzysztof Hierdzin/Ballada F-Dur
TTITLE9=Artur Dutkiewicz/Błękitna Ścieżka
TTITLE10=A.Tomala, M.Trzęsiok, W.Podzerko, A.Skolik/Invention
EXTD=YEAR: 2005
EXTT0=
EXTT1=
EXTT2=
EXTT3=
EXTT4=
EXTT5=
EXTT6=
EXTT7=
EXTT8=
EXTT9=
EXTT10=
PLAYORDER=
